# 3ds Max Wavefront OBJ Exporter v0.97b - (c)2007 guruware
# File Created: 20.08.2017 15:20:17

#
# object Car
#

v  -125.0000 0.0000 98.0000
v  -125.0000 0.0000 -175.0000
v  125.0000 0.0000 -175.0000
v  125.0000 0.0000 98.0000
v  -111.1203 0.0000 175.0000
v  111.1203 0.0000 175.0000
v  111.1203 50.0000 175.0000
v  -111.1203 50.0000 175.0000
v  125.0000 82.1520 -175.0000
v  125.0000 82.1518 98.0000
v  -125.0000 82.1520 -175.0000
v  -125.0000 82.1518 98.0000
v  87.8094 184.3490 -60.8094
v  -87.8094 184.3490 -60.8094
v  -87.8094 184.3490 60.8094
v  87.8094 184.3490 60.8094
v  110.7475 82.1518 -83.7475
v  110.7475 82.1518 83.7475
v  -110.7475 82.1518 -83.7475
v  -110.7475 82.1518 83.7475
# 20 vertices

vn 0.0000 -1.0000 -0.0000
vn 0.0000 0.0000 1.0000
vn 0.9960 0.0000 0.0891
vn 1.0000 0.0000 -0.0000
vn 0.9971 0.0000 0.0764
vn 0.0000 0.0000 -1.0000
vn -0.9960 0.0000 0.0891
vn -0.9971 0.0000 0.0764
vn -1.0000 0.0000 -0.0000
vn 0.0000 0.9228 0.3853
vn 0.9841 0.0000 0.1774
vn -0.9841 0.0000 0.1774
vn 0.0000 1.0000 -0.0000
vn -0.0000 1.0000 0.0000
vn 0.0000 1.0000 0.0000
vn 0.9757 0.2190 -0.0000
vn 0.0000 0.2190 -0.9757
vn -0.9757 0.2190 -0.0000
vn 0.0000 0.2190 0.9757
# 19 vertex normals

vt 1.0000 0.2200 0.0000
vt 1.0000 1.0000 0.0000
vt 0.0000 1.0000 0.0000
vt 0.0000 0.2200 0.0000
vt 0.0000 0.0000 0.0000
vt 1.0000 0.0000 0.0000
vt 0.2200 0.0000 0.0000
vt 0.7800 1.0000 0.0000
vt 0.2200 1.0000 0.0000
vt 0.7800 0.0000 0.0000
vt 0.0000 0.7800 0.0000
vt 1.0000 0.7800 0.0000
vt 0.0570 0.7393 0.0000
vt 0.9430 0.7393 0.0000
# 14 texture coords

g Car
s 2
f 1/1/1 2/2/1 3/3/1 4/4/1 
s 8
f 5/5/2 6/6/2 7/2/2 8/3/2 
s 16
f 4/7/3 3/6/4 9/8/4 10/9/5 
s 32
f 3/5/6 2/6/6 11/2/6 9/3/6 
s 64
f 1/10/7 12/8/8 11/3/9 2/5/9 
s 2
f 4/4/1 6/5/1 5/6/1 1/1/1 
s 4
f 12/4/10 8/5/10 7/6/10 10/1/10 
s 16
f 10/9/5 7/3/11 6/5/11 4/7/3 
s 64
f 1/10/7 5/6/12 8/2/12 12/8/8 
s off
f 13/8/13 14/11/13 15/8/13 16/1/13 
f 10/1/14 9/8/14 17/8/14 18/1/14 
s 4
f 9/12/15 11/3/15 19/13/15 17/14/15 
s off
f 11/3/15 12/8/15 20/8/15 19/11/15 
f 12/8/13 10/1/13 18/1/13 20/8/13 
f 18/1/16 17/8/16 13/8/16 16/1/16 
f 17/8/17 19/11/17 14/11/17 13/8/17 
f 19/11/18 20/8/18 15/8/18 14/11/18 
f 20/8/19 18/1/19 16/1/19 15/8/19 
# 18 polygons

