# 3ds Max Wavefront OBJ Exporter v0.97b - (c)2007 guruware
# File Created: 20.08.2017 15:21:30

#
# object Jeep
#

v  -125.0000 0.0000 152.0791
v  -125.0000 0.0000 -59.4615
v  0.0000 0.0000 -59.4615
v  0.0000 0.0000 152.0791
v  -111.1203 0.0000 177.9320
v  0.0000 0.0000 177.9320
v  0.0000 50.0000 177.9320
v  -111.1203 50.0000 177.9320
v  -125.0000 93.8083 152.0791
v  -125.0000 93.8084 -59.4615
v  0.0000 93.8083 152.0791
v  0.0000 93.8083 83.7475
v  -110.7475 93.8083 83.7475
v  -110.7475 93.8083 -59.7335
v  -87.8094 184.3490 60.8094
v  -87.8094 184.3490 -36.7954
v  0.0000 184.3490 60.8094
v  -125.0000 0.0000 -312.8453
v  -125.0000 93.8085 -312.8453
v  -110.7470 93.8085 -312.8453
v  -110.3735 34.2008 -312.8453
v  0.0000 0.0000 -312.8453
v  0.0000 184.3490 -36.7954
v  0.0000 34.2008 -312.8453
v  -110.7475 34.3708 -59.7335
v  0.0000 34.3708 -59.7335
v  0.0000 93.8083 -59.7335
v  125.0000 0.0000 152.0791
v  125.0000 0.0000 -59.4615
v  111.1203 0.0000 177.9320
v  111.1203 50.0000 177.9320
v  125.0000 93.8084 -59.4615
v  125.0000 93.8083 152.0791
v  110.7475 93.8083 83.7475
v  110.7475 93.8083 -59.7335
v  87.8094 184.3490 -36.7954
v  87.8094 184.3490 60.8094
v  125.0000 0.0000 -312.8453
v  110.3735 34.2008 -312.8453
v  110.7470 93.8085 -312.8453
v  125.0000 93.8085 -312.8453
v  110.7475 34.3708 -59.7335
# 42 vertices

vn 0.0000 -1.0000 -0.0000
vn 0.0000 0.0000 1.0000
vn -0.9698 -0.0000 0.2439
vn -0.9912 -0.0000 0.1323
vn -1.0000 0.0000 -0.0000
vn 0.0000 0.5082 0.8612
vn -0.8811 -0.0000 0.4730
vn -0.8811 0.0000 0.4730
vn 0.0000 1.0000 -0.0000
vn -0.9694 0.2456 -0.0000
vn 0.0000 0.2456 0.9694
vn 0.0000 0.0000 -1.0000
vn 0.0000 1.0000 0.0000
vn 0.0000 1.0000 -0.0007
vn 0.0000 0.2456 -0.9694
vn 1.0000 0.0031 0.0007
vn 0.9698 -0.0000 0.2439
vn 1.0000 0.0000 -0.0000
vn 0.9912 -0.0000 0.1323
vn 0.8811 0.0000 0.4730
vn 0.8811 -0.0000 0.4730
vn 0.9694 0.2456 -0.0000
vn -0.0000 1.0000 0.0000
vn -1.0000 0.0031 0.0007
# 24 vertex normals

vt 1.0000 0.2200 0.0000
vt 1.0000 0.5749 0.0000
vt 0.5000 0.5749 0.0000
vt 0.5000 0.2200 0.0000
vt 0.0000 0.0000 0.0000
vt 0.5000 0.0000 0.0000
vt 0.5000 1.0000 0.0000
vt 0.0000 1.0000 0.0000
vt 0.7800 0.0000 0.0000
vt 0.7800 1.0000 0.0000
vt 0.4251 1.0000 0.0000
vt 0.4251 0.0000 0.0000
vt 0.0000 0.2200 0.0000
vt 1.0000 0.0000 0.0000
vt 1.0000 1.0000 0.0000
vt 0.8900 0.6100 0.0000
vt 0.0000 0.7800 0.0000
vt 0.9351 1.0000 0.0000
vt -0.4247 0.7800 0.0000
vt 0.3900 0.8900 0.0000
vt 0.4992 0.8902 0.0000
vt 0.0649 0.9857 0.0000
vt 0.0570 0.7393 0.0000
vt 0.5000 0.7393 0.0000
# 24 texture coords

g Jeep
s 2
f 1/1/1 2/2/1 3/3/1 4/4/1 
s 8
f 5/5/2 6/6/2 7/7/2 8/8/2 
s 64
f 1/9/3 9/10/4 10/11/5 2/12/5 
s 4
f 9/13/6 8/5/6 7/6/6 11/4/6 
s 64
f 1/9/3 5/14/7 8/15/8 9/10/4 
s off
f 9/10/9 11/16/9 12/16/9 13/10/9 
f 14/17/10 13/10/10 15/10/10 16/17/10 
f 13/10/11 12/16/11 17/16/11 15/10/11 
f 18/14/12 19/15/12 20/18/12 21/14/12 
s 4
f 20/19/13 19/8/13 10/11/13 14/17/13 
s 2
f 2/2/1 18/15/1 22/7/1 3/3/1 
s 64
f 10/11/5 19/8/5 18/5/5 2/12/5 
s off
f 10/11/13 9/10/13 13/10/13 14/17/13 
s 2
f 6/6/1 5/14/1 1/1/1 4/4/1 
s off
f 23/20/9 16/17/9 15/10/9 17/16/9 
s 4
f 24/21/14 21/22/14 25/23/14 26/24/14 
s off
f 27/20/15 14/17/15 16/17/15 23/20/15 
f 22/6/12 18/14/12 21/14/12 24/6/12 
f 20/22/16 14/23/16 25/23/16 21/22/16 
f 14/23/12 27/24/12 26/24/12 25/23/12 
s 2
f 28/1/1 4/4/1 3/3/1 29/2/1 
s 8
f 30/5/2 31/8/2 7/7/2 6/6/2 
s 64
f 28/9/17 29/12/18 32/11/18 33/10/19 
s 4
f 33/13/6 11/4/6 7/6/6 31/5/6 
s 64
f 28/9/17 33/10/19 31/15/20 30/14/21 
s off
f 33/10/9 34/10/9 12/16/9 11/16/9 
f 35/17/22 36/17/22 37/10/22 34/10/22 
f 34/10/11 37/10/11 17/16/11 12/16/11 
f 38/14/12 39/14/12 40/18/12 41/15/12 
s 4
f 40/19/13 35/17/23 32/11/23 41/8/23 
s 2
f 29/2/1 3/3/1 22/7/1 38/15/1 
s 64
f 32/11/18 29/12/18 38/5/18 41/8/18 
s off
f 32/11/23 35/17/23 34/10/23 33/10/23 
s 2
f 6/6/1 4/4/1 28/1/1 30/14/1 
s off
f 23/20/9 17/16/9 37/10/9 36/17/9 
s 4
f 24/21/14 26/24/14 42/23/14 39/22/14 
s off
f 27/20/15 23/20/15 36/17/15 35/17/15 
f 22/6/12 24/6/12 39/14/12 38/14/12 
f 40/22/24 39/22/24 42/23/24 35/23/24 
f 35/23/12 42/23/12 26/24/12 27/24/12 
# 40 polygons

