# 3ds Max Wavefront OBJ Exporter v0.97b - (c)2007 guruware
# File Created: 20.08.2017 15:21:43

#
# object Van
#

v  -125.0000 0.0000 152.0791
v  -125.0000 0.0000 -312.8453
v  0.0000 0.0000 -312.8453
v  0.0000 0.0000 152.0791
v  -111.1203 0.0000 177.9320
v  0.0000 0.0000 177.9320
v  0.0000 50.0000 177.9320
v  -111.1203 50.0000 177.9320
v  -120.3139 93.8083 152.0791
v  -120.3139 93.8085 -312.8453
v  0.0000 93.8083 152.0791
v  -87.8094 210.1656 84.7297
v  -87.8094 210.1656 -298.1773
v  0.0000 210.1656 84.7297
v  0.0000 210.1656 -298.1773
v  0.0000 93.8083 -312.8344
v  125.0000 0.0000 152.0791
v  125.0000 0.0000 -312.8453
v  111.1203 0.0000 177.9320
v  111.1203 50.0000 177.9320
v  120.3139 93.8085 -312.8453
v  120.3139 93.8083 152.0791
v  87.8094 210.1656 -298.1773
v  87.8094 210.1656 84.7297
# 24 vertices

vn 0.0000 -1.0000 -0.0000
vn 0.0000 0.0000 1.0000
vn -0.9691 0.0484 0.2418
vn -0.9928 0.0435 0.1119
vn -0.9988 0.0499 0.0000
vn 0.0000 0.5082 0.8612
vn -0.8930 0.0361 0.4485
vn -0.9422 0.0000 0.3351
vn -0.9631 0.2691 0.0000
vn 0.0000 0.5010 0.8655
vn 0.0000 1.0000 -0.0000
vn 0.0001 0.1250 -0.9922
vn 0.0000 0.0001 -1.0000
vn 0.9691 0.0484 0.2418
vn 0.9988 0.0499 0.0000
vn 0.9928 0.0435 0.1119
vn 0.9422 0.0000 0.3351
vn 0.8930 0.0361 0.4485
vn 0.9631 0.2691 0.0000
vn -0.0001 0.1250 -0.9922
vn -0.0000 0.0001 -1.0000
# 21 vertex normals

vt 1.0000 0.2200 0.0000
vt 1.0000 1.0000 0.0000
vt 0.5000 1.0000 0.0000
vt 0.5000 0.2200 0.0000
vt 0.0000 0.0000 0.0000
vt 0.5000 0.0000 0.0000
vt 0.0000 1.0000 0.0000
vt 0.7800 0.0000 0.0000
vt 0.7800 1.0000 0.0000
vt 0.0000 0.2200 0.0000
vt 1.0000 0.0000 0.0000
vt 0.0000 0.7800 0.0000
vt 0.8900 0.6100 0.0000
vt 0.3900 0.8900 0.0000
# 14 texture coords

g Van
s 2
f 1/1/1 2/2/1 3/3/1 4/4/1 
s 8
f 5/5/2 6/6/2 7/3/2 8/7/2 
s 64
f 1/8/3 9/9/4 10/7/5 2/5/5 
s 4
f 9/10/6 8/5/6 7/6/6 11/4/6 
s 64
f 1/8/3 5/11/7 8/2/8 9/9/4 
s off
f 10/12/9 9/9/9 12/9/9 13/12/9 
f 9/9/10 11/13/10 14/13/10 12/9/10 
s 2
f 6/6/1 5/11/1 1/1/1 4/4/1 
s off
f 15/14/11 13/12/11 12/9/11 14/13/11 
f 16/14/12 10/12/12 13/12/12 15/14/12 
f 3/6/13 2/11/13 10/11/13 16/6/13 
s 2
f 17/1/1 4/4/1 3/3/1 18/2/1 
s 8
f 19/5/2 20/7/2 7/3/2 6/6/2 
s 64
f 17/8/14 18/5/15 21/7/15 22/9/16 
s 4
f 22/10/6 11/4/6 7/6/6 20/5/6 
s 64
f 17/8/14 22/9/16 20/2/17 19/11/18 
s off
f 21/12/19 23/12/19 24/9/19 22/9/19 
f 22/9/10 24/9/10 14/13/10 11/13/10 
s 2
f 6/6/1 4/4/1 17/1/1 19/11/1 
s off
f 15/14/11 14/13/11 24/9/11 23/12/11 
f 16/14/20 15/14/20 23/12/20 21/12/20 
f 3/6/21 16/6/21 21/11/21 18/11/21 
# 22 polygons

